#!OML:ASF F:\VICON\USERDATA\INSTALL\Justin_Nancy\Justin_Nancy.ASF
:FULLY-SPECIFIED
:DEGREES
64
root 0.210553 17.5016 5.25038 -8.42711 2.65576 -2.55161
lowerback 10.7392 3.24385 3.27155
upperback -0.00430618 4.84058 1.84585
thorax -5.9135 2.31046 -0.653309
lowerneck -18.2118 -7.90205 -11.0816
upperneck 19.3021 -10.1683 9.83184
head 10.2664 -4.44929 3.79453
rclavicle -1.44989e-014 7.95139e-016
rhumerus -37.9275 10.7761 -87.3469
rradius 104.147
rwrist -7.23256
rhand -19.1911 28.727
rfingers 7.12502
rthumb 7.12072 -1.13319
lclavicle -1.44989e-014 7.95139e-016
lhumerus -64.91 -7.92367 94.5
lradius 111.69
lwrist 31.3329
lhand -14.0311 8.04537
lfingers 7.12502
lthumb 12.0991 37.6756
rfemur -6.47908 0.359504 26.1542
rtibia 63.6568
rfoot 5.51035 1.55528
rtoes 4.18452
lfemur -26.8856 -6.87536 -18.1362
ltibia 29.2344
lfoot 8.59924 -0.196514
ltoes -18.4098
65
root 0.201124 17.4798 5.66474 -8.36333 2.40651 -2.76407
lowerback 10.4374 3.21636 3.32145
upperback -0.0445606 4.80411 1.95424
thorax -5.79296 2.29554 -0.544761
lowerneck -18.0659 -7.69745 -11.0009
upperneck 19.4123 -9.92843 9.83345
head 10.2459 -4.33711 3.82706
rclavicle 6.36359e-014 2.16675e-014
rhumerus -37.4433 12.5228 -87.6163
rradius 104.552
rwrist -6.94006
rhand -18.7458 29.2329
rfingers 7.12502
rthumb 7.55053 -0.61231
lclavicle 6.36359e-014 2.16675e-014
lhumerus -65.7914 -7.4434 94.0653
lradius 112.484
lwrist 31.7525
lhand -14.0055 7.83876
lfingers 7.12502
lthumb 12.1238 37.4675
rfemur -6.85477 0.289946 26.2058
rtibia 65.3769
rfoot 4.30947 0.725933
rtoes 4.45073
lfemur -26.7905 -7.1719 -17.6907
ltibia 26.6777
lfoot 10.8697 -1.83531
ltoes -17.5382
66
root 0.185482 17.4427 6.07152 -8.42136 2.18831 -2.99996
lowerback 10.3279 3.16016 3.34207
upperback -0.120528 4.73571 2.04989
thorax -5.82029 2.26185 -0.442382
lowerneck -17.8781 -7.46568 -10.9195
upperneck 19.6715 -9.68241 9.89314
head 10.2735 -4.2157 3.88401
rclavicle -4.05272e-014 -7.7526e-015
rhumerus -37.0629 14.0826 -88.0002
rradius 104.798
rwrist -6.43144
rhand -18.3311 29.7226
rfingers 7.12502
rthumb 7.95079 -0.107889
lclavicle -4.05272e-014 -7.7526e-015
lhumerus -66.7395 -7.06954 93.6508
lradius 113.308
lwrist 32.3209
lhand -14.3693 8.06311
lfingers 7.12502
lthumb 11.773 37.7122
rfemur -7.29391 0.0949836 26.3032
rtibia 67.2112
rfoot 3.27079 -0.35131
rtoes 3.75299
lfemur -26.7463 -6.38981 -17.5401
ltibia 24.994
lfoot 12.0868 -3.97763
ltoes -13.3719
67
root 0.170578 17.3934 6.48255 -8.52138 2.2489 -2.78909
lowerback 10.2045 3.04726 2.92516
upperback -0.206343 4.53101 2.00704
thorax -5.87495 2.17169 -0.221484
lowerneck -17.5281 -7.29723 -10.806
upperneck 19.9191 -9.50665 9.77816
head 10.2631 -4.1486 3.86402
rclavicle -4.35587e-014 -1.43125e-014
rhumerus -36.6459 15.4823 -88.4775
rradius 104.888
rwrist -6.14148
rhand -18.0684 30.1316
rfingers 7.12502
rthumb 8.20427 0.310937
lclavicle -4.35587e-014 -1.43125e-014
lhumerus -67.6077 -6.7328 93.2977
lradius 114.073
lwrist 32.9724
lhand -14.6966 8.64612
lfingers 7.12502
lthumb 11.4574 38.313
rfemur -7.88112 -0.403618 25.7525
rtibia 69.1616
rfoot 2.35525 -1.62159
rtoes 2.83749
lfemur -26.6263 -5.51987 -18.0628
ltibia 24.1499
lfoot 12.5262 -5.56025
ltoes -11.4928
68
root 0.159082 17.3241 6.89025 -8.64841 2.30612 -2.47281
lowerback 10.0844 2.95674 2.42832
upperback -0.16632 4.34221 1.95542
thorax -5.80093 2.09466 0.0363217
lowerneck -17.494 -7.17397 -10.6074
upperneck 20.1362 -9.35052 9.53727
head 10.2921 -4.08794 3.77345
rclavicle 5.16592e-014 2.0276e-014
rhumerus -36.0038 16.5411 -88.8577
rradius 104.852
rwrist -6.06349
rhand -17.6691 30.7403
rfingers 7.12502
rthumb 8.58963 0.935024
lclavicle 5.16592e-014 2.0276e-014
lhumerus -68.1641 -6.49932 93.0697
lradius 114.766
lwrist 33.6519
lhand -14.5928 8.49276
lfingers 7.12502
lthumb 11.5575 38.1541
rfemur -8.64803 -0.914962 24.9971
rtibia 71.1917
rfoot 1.2147 -2.69002
rtoes 2.5812
lfemur -26.4361 -4.97703 -18.6618
ltibia 24.0015
lfoot 13.9992 -5.15777
ltoes -14.0317
69
root 0.146085 17.2369 7.28988 -8.90667 2.2858 -2.49919
lowerback 10.1944 2.83877 2.31798
upperback -0.109444 4.17663 1.99302
thorax -5.81555 2.01697 0.156749
lowerneck -17.5669 -7.01001 -10.4982
upperneck 20.3651 -9.1261 9.3967
head 10.3488 -3.98849 3.74262
rclavicle -1.04859e-014 -2.127e-014
rhumerus -35.5121 17.2052 -89.3025
rradius 104.741
rwrist -5.96486
rhand -17.1561 31.6293
rfingers 7.12502
rthumb 9.08467 1.84496
lclavicle -1.04859e-014 -2.127e-014
lhumerus -68.6384 -6.30415 92.9337
lradius 115.459
lwrist 34.2506
lhand -14.7534 8.34565
lfingers 7.12502
lthumb 11.4026 38.0156
rfemur -9.43288 -1.41255 24.6442
rtibia 73.2037
rfoot -0.0121438 -3.53508
rtoes 1.90927
lfemur -26.1776 -4.5014 -18.8451
ltibia 24.4323
lfoot 15.2403 -4.59797
ltoes -16.7252
70
root 0.128281 17.1381 7.67812 -9.35378 2.25959 -2.88809
lowerback 10.7469 2.63594 2.60363
upperback -0.165422 3.97159 2.09067
thorax -6.17614 1.90251 0.100454
lowerneck -17.3337 -6.80274 -10.4933
upperneck 20.5057 -8.87095 9.40138
head 10.3261 -3.87707 3.79161
rclavicle 6.47293e-014 2.18663e-014
rhumerus -35.4878 17.6717 -90.0513
rradius 104.672
rwrist -5.70631
rhand -17.0377 32.2208
rfingers 7.12502
rthumb 9.19896 2.44142
lclavicle 6.47293e-014 2.18663e-014
lhumerus -69.311 -6.15614 92.7665
lradius 116.166
lwrist 34.7895
lhand -14.8545 8.30525
lfingers 7.12502
lthumb 11.305 37.9806
rfemur -10.2366 -1.96426 24.7285
rtibia 75.1508
rfoot -0.957208 -4.4755
rtoes 0.586871
lfemur -25.8613 -4.07264 -18.5997
ltibia 25.508
lfoot 16.2593 -4.84586
ltoes -15.4725
71
root 0.113859 17.0388 8.06573 -9.9393 2.18563 -3.18095
lowerback 11.3454 2.44689 2.83742
upperback -0.148018 3.7819 2.1902
thorax -6.48998 1.79778 0.0761235
lowerneck -16.9731 -6.60298 -10.5636
upperneck 20.5108 -8.60921 9.41596
head 10.234 -3.77195 3.85749
rclavicle -1.4064e-014 -1.33186e-014
rhumerus -35.5536 17.9742 -90.8081
rradius 104.583
rwrist -5.29987
rhand -17.1872 31.9977
rfingers 7.12502
rthumb 9.05473 2.21207
lclavicle -1.4064e-014 -1.33186e-014
lhumerus -69.8801 -6.10516 92.6978
lradius 116.905
lwrist 35.2305
lhand -14.5993 8.02562
lfingers 7.12502
lthumb 11.5512 37.6873
rfemur -11.0295 -2.45389 24.5974
rtibia 77.0024
rfoot -1.7443 -5.32148
rtoes 2.27751
lfemur -25.4277 -3.87083 -18.4034
ltibia 27.3382
lfoot 15.8297 -5.71884
ltoes -10.0767
72
root 0.10778 16.9258 8.45368 -10.5701 2.14078 -3.25122
lowerback 11.7675 2.27795 2.92591
upperback 0.0255832 3.5847 2.24301
thorax -6.54458 1.69868 0.0998731
lowerneck -16.6481 -6.38746 -10.5263
upperneck 20.3275 -8.30717 9.31484
head 10.0659 -3.65193 3.86536
rclavicle 6.31141e-015 -9.93923e-015
rhumerus -35.3183 18.0977 -91.3432
rradius 104.268
rwrist -5.0722
rhand -17.3169 31.683
rfingers 7.12502
rthumb 8.92956 1.89199
lclavicle 6.31141e-015 -9.93923e-015
lhumerus -70.0656 -6.20388 92.8501
lradius 117.592
lwrist 35.5768
lhand -14.852 8.21077
lfingers 7.12502
lthumb 11.3075 37.886
rfemur -11.8776 -3.02692 24.0626
rtibia 78.7737
rfoot -2.4477 -5.81137
rtoes 4.97844
lfemur -24.9791 -3.9259 -18.422
ltibia 29.8594
lfoot 12.5576 -7.03712
ltoes -5.40929
73
root 0.0983257 16.7919 8.83732 -11.3657 1.95089 -3.57073
lowerback 12.4924 2.15796 3.21735
upperback 0.217741 3.50438 2.41056
thorax -6.74345 1.64948 0.100415
lowerneck -16.5343 -6.19816 -10.5813
upperneck 20.232 -8.01128 9.24543
head 9.97611 -3.53121 3.89548
rclavicle -9.19379e-016 1.37161e-014
rhumerus -35.2406 17.933 -91.875
rradius 103.902
rwrist -4.94804
rhand -17.3897 31.6646
rfingers 7.12502
rthumb 8.85926 1.87059
lclavicle -9.19379e-016 1.37161e-014
lhumerus -70.0222 -6.37768 93.1614
lradius 118.141
lwrist 35.6622
lhand -14.5342 8.35593
lfingers 7.12502
lthumb 11.614 38.0141
rfemur -12.611 -3.61415 23.875
rtibia 80.3767
rfoot -2.91183 -6.16683
rtoes 4.61719
lfemur -24.6043 -3.60754 -18.162
ltibia 32.9499
lfoot 8.11264 -8.65155
ltoes -4.31317
74
root 0.0878423 16.6648 9.21625 -12.1412 1.69591 -3.79271
lowerback 13.1712 2.06737 3.47634
upperback 0.557043 3.45014 2.52827
thorax -6.7563 1.61763 0.0684847
lowerneck -16.9093 -6.13486 -10.8837
upperneck 20.2461 -7.83576 9.38707
head 10.0514 -3.44776 4.01746
rclavicle -3.1234e-014 -7.95139e-016
rhumerus -35.0402 17.3894 -92.463
rradius 103.416
rwrist -4.64888
rhand -17.5192 31.5745
rfingers 7.12502
rthumb 8.73433 1.77522
lclavicle -3.1234e-014 -7.95139e-016
lhumerus -69.183 -6.61121 93.4667
lradius 118.272
lwrist 35.4889
lhand -14.0786 7.97846
lfingers 7.12502
lthumb 12.0533 37.6113
rfemur -13.3301 -4.13183 23.6299
rtibia 81.7411
rfoot -3.48137 -6.53759
rtoes 2.06419
lfemur -24.3074 -3.24804 -18.0044
ltibia 36.3283
lfoot 4.36681 -9.24997
ltoes -1.71845
75
root 0.0837013 16.5438 9.58381 -12.6397 1.57494 -3.54302
lowerback 13.4865 1.95177 3.27571
upperback 0.921849 3.26581 2.52322
thorax -6.5576 1.53917 0.203988
lowerneck -17.0025 -6.01445 -11.0042
upperneck 19.9149 -7.58062 9.32121
head 9.92408 -3.34472 4.04549
rclavicle -2.94698e-014 -1.31198e-014
rhumerus -34.7258 16.7343 -93.0589
rradius 102.638
rwrist -4.33862
rhand -17.7955 31.2977
rfingers 7.12502
rthumb 8.46772 1.48744
lclavicle -2.94698e-014 -1.31198e-014
lhumerus -67.9934 -6.76129 93.8205
lradius 118.189
lwrist 34.9974
lhand -13.9379 7.72881
lfingers 7.12502
lthumb 12.189 37.3537
rfemur -14.4988 -4.6629 22.7377
rtibia 82.9705
rfoot -4.46883 -6.55714
rtoes 1.00498
lfemur -24.0706 -3.17092 -18.429
ltibia 39.7204
lfoot 0.512699 -8.68566
ltoes -1.27946
76
root 0.0764723 16.4254 9.94792 -13.0348 1.61901 -2.9788
lowerback 13.733 1.81922 2.71468
upperback 1.2389 2.99465 2.40262
thorax -6.38287 1.42491 0.438567
lowerneck -16.9629 -5.81036 -10.6824
upperneck 19.4216 -7.24459 8.88563
head 9.6729 -3.21375 3.8789
rclavicle 3.70236e-015 -2.38542e-015
rhumerus -34.6189 15.8982 -93.7747
rradius 101.676
rwrist -3.77004
rhand -17.9881 31.5136
rfingers 7.12502
rthumb 8.28179 1.69595
lclavicle 3.70236e-015 -2.38542e-015
lhumerus -66.93 -6.96073 94.0944
lradius 118.258
lwrist 34.5745
lhand -14.1035 7.97759
lfingers 7.12502
lthumb 12.0293 37.6119
rfemur -15.9589 -5.21802 21.5185
rtibia 83.9881
rfoot -5.22277 -6.41504
rtoes 1.74353
lfemur -23.8077 -3.45457 -19.2504
ltibia 42.8436
lfoot -3.21187 -7.39008
ltoes -3.45642
